<?xml version="1.0" encoding="UTF-8" standalone="no"?>
<!-- Created with Inkscape (http://www.inkscape.org/) -->

<svg
   width="137.81697mm"
   height="179.16341mm"
   viewBox="0 0 137.81697 179.16341"
   version="1.1"
   id="svg1"
   xml:space="preserve"
   inkscape:version="1.3.2 (091e20e, 2023-11-25)"
   sodipodi:docname="logo.svg"
   inkscape:export-filename="logo.png"
   inkscape:export-xdpi="300"
   inkscape:export-ydpi="300"
   xmlns:inkscape="http://www.inkscape.org/namespaces/inkscape"
   xmlns:sodipodi="http://sodipodi.sourceforge.net/DTD/sodipodi-0.dtd"
   xmlns="http://www.w3.org/2000/svg"
   xmlns:svg="http://www.w3.org/2000/svg"><sodipodi:namedview
     id="namedview1"
     pagecolor="#ffffff"
     bordercolor="#000000"
     borderopacity="0.25"
     inkscape:showpageshadow="2"
     inkscape:pageopacity="0.0"
     inkscape:pagecheckerboard="0"
     inkscape:deskcolor="#d1d1d1"
     inkscape:document-units="mm"
     inkscape:zoom="0.73569455"
     inkscape:cx="175.34451"
     inkscape:cy="426.80757"
     inkscape:window-width="1392"
     inkscape:window-height="1099"
     inkscape:window-x="56"
     inkscape:window-y="25"
     inkscape:window-maximized="0"
     inkscape:current-layer="layer1" /><defs
     id="defs1"><inkscape:path-effect
       effect="powerstroke"
       id="path-effect11"
       is_visible="true"
       lpeversion="1.3"
       scale_width="6.4039409"
       interpolator_type="CentripetalCatmullRom"
       interpolator_beta="0.28325123"
       start_linecap_type="zerowidth"
       end_linecap_type="butt"
       offset_points="0.65979666,0.32791959 | 1.0144543,0.65062553 | 1.9544195,0.93994969"
       linejoin_type="bevel"
       miter_limit="4"
       not_jump="false"
       sort_points="true"
       message="&lt;b&gt;Ctrl + click&lt;/b&gt; on existing node and move it" /><inkscape:path-effect
       effect="powerstroke"
       id="path-effect10"
       is_visible="true"
       lpeversion="1.3"
       scale_width="2.7093596"
       interpolator_type="CentripetalCatmullRom"
       interpolator_beta="0.15517241"
       start_linecap_type="zerowidth"
       end_linecap_type="zerowidth"
       offset_points="0.93054738,1.7501712 | 2.0239251,-1.4850455 | 3.8564724,1.9866306"
       linejoin_type="round"
       miter_limit="4"
       not_jump="false"
       sort_points="true"
       message="&lt;b&gt;Ctrl + click&lt;/b&gt; on existing node and move it" /><inkscape:path-effect
       effect="powerstroke"
       id="path-effect9"
       is_visible="true"
       lpeversion="1.3"
       scale_width="1"
       interpolator_type="CentripetalCatmullRom"
       interpolator_beta="0.11576355"
       start_linecap_type="zerowidth"
       end_linecap_type="zerowidth"
       offset_points="1.3931687,3.9271899 | 4.367988,-3.2033507 | 12.087033,-0.60524675"
       linejoin_type="round"
       miter_limit="4"
       not_jump="false"
       sort_points="true"
       message="&lt;b&gt;Ctrl + click&lt;/b&gt; on existing node and move it" /><inkscape:path-effect
       effect="powerstroke"
       id="path-effect8"
       is_visible="true"
       lpeversion="1.3"
       scale_width="6.1576355"
       interpolator_type="CentripetalCatmullRom"
       interpolator_beta="0.44827586"
       start_linecap_type="zerowidth"
       end_linecap_type="zerowidth"
       offset_points="0.778712,0.74611291 | 2.1972818,0.77977264 | 2.7131566,0.26348691"
       linejoin_type="round"
       miter_limit="4"
       not_jump="false"
       sort_points="true"
       message="&lt;b&gt;Ctrl + click&lt;/b&gt; on existing node and move it" /><inkscape:path-effect
       effect="skeletal"
       id="path-effect7"
       is_visible="true"
       lpeversion="1"
       pattern="M 0,0 H 1"
       copytype="single_stretched"
       prop_scale="10"
       scale_y_rel="false"
       spacing="0.9"
       normal_offset="0"
       tang_offset="0"
       prop_units="false"
       vertical_pattern="false"
       hide_knot="false"
       fuse_tolerance="0" /><inkscape:path-effect
       effect="taper_stroke"
       start_shape="left | center"
       end_shape="right | center"
       id="path-effect6"
       is_visible="true"
       lpeversion="1"
       stroke_width="8"
       subpath="1"
       attach_start="5"
       end_offset="0.2"
       start_smoothing="0.5"
       end_smoothing="0.5"
       jointype="extrapolated"
       miter_limit="100" /><inkscape:path-effect
       effect="taper_stroke"
       start_shape="center | center"
       end_shape="center | center"
       id="path-effect5"
       is_visible="true"
       lpeversion="1"
       stroke_width="5"
       subpath="1"
       attach_start="2"
       end_offset="0.2"
       start_smoothing="0.5"
       end_smoothing="0.5"
       jointype="extrapolated"
       miter_limit="100" /><inkscape:path-effect
       effect="taper_stroke"
       start_shape="center | center"
       end_shape="center | center"
       id="path-effect4"
       is_visible="true"
       lpeversion="1"
       stroke_width="5.4"
       subpath="1"
       attach_start="3.6248974"
       end_offset="3.8133042"
       start_smoothing="0.5"
       end_smoothing="0.8"
       jointype="extrapolated"
       miter_limit="100" /></defs><g
     inkscape:label="Layer 1"
     inkscape:groupmode="layer"
     id="layer1"
     transform="translate(-39.699139,-51.41555)"><path
       style="fill:#77a4fb;fill-rule:nonzero;stroke:none;fill-opacity:1"
       d="m 332.20691,130.64478 c -1.73587,3.03283 -4.99363,7.0606 -10.07456,10.50096 -2.1094,1.4283 -4.30462,2.62978 -6.65382,3.81826 -1.7287,0.87456 -3.73757,1.79665 -6.15729,2.73795 -5.07402,1.98407 -9.44051,3.2996 -15.09536,4.86514 -5.97745,1.65486 -11.8896,3.20344 -19.47941,5.65876 -3.60045,1.16396 -7.04599,2.38895 -10.40137,3.80411 -1.00566,0.42415 -1.99288,0.86472 -2.96131,1.32178 -5.31745,2.50963 -9.84069,5.40879 -13.6752,8.59576 -3.85206,3.20156 -6.97744,6.66712 -9.52625,10.27726 -0.45837,0.64923 -0.90553,1.32132 -1.33785,2.01715 -3.88891,6.2593 -5.06249,12.0515 -5.46062,15.92265 1.01762,-3.83601 3.05488,-9.12889 7.7102,-14.23275 0.51224,-0.56159 1.03349,-1.09608 1.5599,-1.60456 2.9307,-2.83087 6.49857,-5.12863 10.52122,-7.10523 3.99926,-1.96511 8.53319,-3.65653 13.6207,-5.28408 0.93256,-0.29834 1.87771,-0.5927 2.8398,-0.88623 3.27595,-0.9995 6.43039,-1.85576 10.02036,-2.77016 6.38376,-1.62747 14.48283,-3.5748 19.57725,-5.03175 5.86725,-1.67797 10.92519,-3.5094 16.29346,-6.24281 2.74428,-1.39276 5.03334,-2.85139 6.93877,-4.32546 2.58929,-2.0031 4.76069,-4.35375 6.4819,-6.92993 4.00646,-5.99658 4.78082,-12.06027 5.25948,-15.10682 z"
       id="path4"
       sodipodi:nodetypes="czzc"
       inkscape:path-effect="#path-effect8"
       inkscape:original-d="m 332.20691,130.64478 c -3.54188,10.08182 -9.97587,16.82532 -20.78291,21.70969 -10.80704,4.88437 -19.30381,6.29316 -35.22274,10.89923 -15.91893,4.60607 -40.50025,13.30646 -44.81739,36.91086"
       transform="translate(-163.29233,3.140237)" /><path
       style="fill:#77a4fb;fill-rule:nonzero;stroke:none;stroke-width:1;stroke-dasharray:none;fill-opacity:1"
       d="m 220.40734,96.469966 c 0.10232,0.393166 0.25091,0.945705 0.50353,1.6731 0.19902,0.573092 0.46514,1.261948 0.82504,2.065344 0.59622,1.33095 1.46505,3.00829 2.69341,4.92603 2.07258,3.23575 5.20951,7.22364 9.54918,10.8637 4.09918,3.43835 9.17632,6.4611 15.06189,7.97018 3.04686,0.78123 6.2005,1.12686 9.40199,0.96852 1.48996,-0.0737 2.9696,-0.25559 4.43197,-0.54382 1.87273,-0.36912 3.7479,-0.92408 5.61425,-1.66836 5.94413,-2.41558 10.99226,-4.75576 15.61969,-6.83443 4.41985,-1.98543 8.57908,-3.79197 12.20923,-4.79367 1.79693,-0.49584 3.58832,-0.83234 5.34148,-0.88241 1.7099,-0.0488 3.44495,0.17342 5.12304,0.83258 1.63421,0.64192 3.1628,1.6808 4.46075,3.17011 1.24584,1.42952 2.21733,3.20342 2.87487,5.28415 0.12834,0.40906 0.23911,0.81987 0.33099,1.23212 0.37857,1.69867 0.43998,3.42705 0.0994,5.12137 -0.40563,2.01808 -1.3409,3.78839 -2.66337,5.27535 -1.24979,1.40524 -2.79618,2.50656 -4.48589,3.39581 -1.6375,0.86177 -3.46577,1.55398 -5.40523,2.14252 -3.74929,1.13774 -8.12288,1.94836 -12.70194,2.79319 -4.4871,0.82786 -9.30457,1.71043 -13.95274,2.97619 -4.62479,1.2495 -10.02406,2.57693 -15.62966,4.15739 -5.79036,1.63255 -11.7297,3.5129 -17.34202,5.83789 -5.95073,2.46519 -11.43674,5.39105 -15.972,8.98303 -2.05866,1.63049 -3.9079,3.38786 -5.5042,5.28181 -0.28344,0.3363 -0.56122,0.67918 -0.83272,1.02867 -1.79573,2.31157 -3.31198,4.90707 -4.37123,7.78613 -3.72021,10.21785 -3.94586,20.22151 -3.28631,28.59664 0.36214,4.59859 1.0223,8.99236 1.54488,12.38542 0.80776,5.24478 1.29031,8.28158 1.4346,10.9442 0.54742,-3.08205 0.95279,-5.22559 1.70804,-10.9788 0.41366,-3.15106 1.0047,-8.04448 1.62651,-12.13944 1.23849,-8.15615 3.02504,-16.46674 6.73626,-24.92391 0.78538,-1.75934 1.83378,-3.43348 3.10072,-5.05291 0.19201,-0.24544 0.38907,-0.48965 0.59101,-0.7327 1.13821,-1.36998 2.4681,-2.76296 4.02211,-4.18642 3.4725,-3.18078 7.7969,-6.27209 13.00613,-9.4239 4.916,-2.9744 10.11317,-5.70327 15.47981,-8.45957 5.09063,-2.61454 10.16216,-5.16643 14.32335,-7.58277 4.12276,-2.4051 8.51966,-4.48128 12.68955,-6.44709 4.31375,-2.03362 8.08811,-3.81675 11.19059,-5.70891 1.57345,-0.95962 2.862,-1.88191 3.88231,-2.78968 1.05581,-0.93936 1.73385,-1.78318 2.16111,-2.53801 0.4242,-0.74941 0.60982,-1.42867 0.6921,-2.07073 0.0722,-0.56317 0.0833,-1.25843 -0.0398,-2.13244 -0.0303,-0.21525 -0.0688,-0.44265 -0.11685,-0.68305 -0.28189,-1.37022 -0.6215,-2.49897 -0.98497,-3.40802 -0.37998,-0.95035 -0.85288,-1.83384 -1.52284,-2.65137 -0.70774,-0.86362 -1.65009,-1.67141 -2.9166,-2.38755 -1.2987,-0.73434 -2.86639,-1.33035 -4.68653,-1.77051 -3.73286,-0.9027 -8.3779,-1.10764 -13.54114,-0.6512 -5.23809,0.46306 -11.051,1.60205 -17.27188,3.40399 -1.48272,0.41611 -2.9178,0.71945 -4.30547,0.93391 -1.08563,0.16777 -2.16917,0.28203 -3.25425,0.34141 -2.3224,0.12709 -4.63955,0.002 -6.97601,-0.38004 -4.55282,-0.74443 -8.92327,-2.42573 -13.06159,-4.69216 -4.33275,-2.37291 -8.05811,-5.19807 -10.81638,-7.51405 -1.62096,-1.36102 -2.99096,-2.61725 -3.98717,-3.566783 -0.60861,-0.580082 -1.12686,-1.092571 -1.53594,-1.510182 -0.52372,-0.534636 -0.90787,-0.953414 -1.16505,-1.265869 z"
       id="path3"
       sodipodi:nodetypes="czzzzc"
       inkscape:path-effect="#path-effect10"
       inkscape:original-d="m 220.40734,96.469966 c 3.49996,6.862324 22.40378,30.333014 46.59156,21.954234 24.18778,-8.37878 39.57597,-11.50258 43.27651,2.12049 3.70054,13.62307 -17.09812,15.33396 -34.61886,22.65323 -17.52074,7.31927 -47.81654,15.97869 -55.08748,34.25659 -7.27094,18.27789 -4.36288,36.42144 -5.18882,49.98421"
       transform="translate(-163.29233,3.140237)" /><path
       style="fill:#77a4fb;fill-rule:nonzero;stroke:none;stroke-width:1;stroke-dasharray:none;fill-opacity:1"
       d="m 219.76415,70.805348 c -0.37746,0.55484 -1.10736,1.681837 -2.1408,3.438054 -0.74369,1.2638 -1.66116,2.882127 -2.68411,4.807696 -1.92109,3.616199 -3.99268,7.900697 -5.85564,12.500249 -1.37685,3.39937 -2.41638,6.415982 -3.24197,9.141043 -0.58237,1.92228 -1.07032,3.70327 -1.46053,5.30732 -0.60583,2.49045 -1.0838,4.98416 -1.28442,7.43538 -0.17488,2.13659 -0.18015,4.70787 0.36452,7.44663 0.0512,0.26316 0.10592,0.52988 0.1644,0.80006 0.74159,3.42583 2.12991,7.65752 4.64634,12.18307 2.17373,3.90925 4.94967,7.61408 8.32758,11.11145 8.16115,8.44979 18.34432,13.94588 21.9716,15.84598 1.329,0.69617 2.26271,1.11611 2.62499,1.28955 l 5.19834,-10.8586 c -0.40672,-0.19471 -1.10003,-0.55085 -2.40253,-1.18022 -3.57057,-1.72531 -12.56431,-6.11361 -19.94351,-12.76039 -3.00165,-2.70372 -5.48099,-5.52731 -7.51728,-8.50057 -2.37107,-3.46209 -3.85091,-6.70203 -4.90212,-9.4512 -0.0822,-0.21499 -0.16215,-0.42774 -0.23987,-0.63801 -0.69384,-1.80666 -1.14665,-3.72458 -1.43154,-5.47824 -0.32649,-2.00974 -0.49833,-4.19758 -0.4476,-6.54673 0.0327,-1.51387 0.15914,-3.19745 0.42992,-5.08698 0.37846,-2.640885 1.01772,-5.678864 1.96317,-9.100028 1.28376,-4.64535 2.87908,-9.088416 4.34126,-12.862418 0.76163,-1.965826 1.50161,-3.78532 2.02936,-5.083524 0.82217,-2.022415 1.2099,-2.985141 1.49044,-3.759572 z"
       id="path2"
       sodipodi:nodetypes="cac"
       inkscape:path-effect="#path-effect11"
       inkscape:original-d="m 219.76415,70.805348 c -3.84497,7.523265 -16.76419,32.746442 -12.33898,48.996932 4.53648,16.65907 17.73694,27.96 36.37011,36.88025"
       transform="translate(-163.29233,3.140237)" /><path
       style="fill:#77a4fb;fill-rule:nonzero;stroke:none;stroke-width:1;stroke-dasharray:none;fill-opacity:1"
       d="m 255.33233,182.19493 c 2.33319,-0.37995 5.44268,-0.43229 10.18202,0.0816 3.63503,0.39415 6.98826,0.95369 11.78471,1.67084 3.827,0.57219 8.26307,1.1887 12.64675,1.43545 4.13988,0.23302 8.51175,0.15826 12.74541,-0.658 l -0.17387,0.0367 c 5.65017,-0.8521 10.8791,-2.49599 15.55847,-4.92405 2.68609,-1.39378 5.16062,-3.0304 7.40547,-4.88915 1.67198,-1.38442 3.2329,-2.90505 4.67001,-4.55786 3.28149,-3.77399 5.89207,-8.20775 7.71045,-13.22295 1.75082,-4.82886 2.75951,-10.17492 2.94126,-15.96564 a 0.00129166,0.08715401 2.0406204 0 0 0.005,-0.10764 c -0.0661,-4.09169 -0.75348,-8.60633 -2.10284,-13.17674 -1.30045,-4.40476 -3.23376,-8.9178 -5.85614,-13.1244 -2.52808,-4.05532 -5.7118,-7.84826 -9.58814,-10.93841 -3.73878,-2.98049 -8.11995,-5.30524 -13.16726,-6.567289 -2.8469,-0.734243 -5.77424,-1.021011 -8.76885,-0.979853 -2.94386,0.04046 -5.95523,0.397751 -9.03,0.960489 -6.08236,1.113179 -12.1188,2.960443 -18.54288,4.727933 -3.07085,0.84489 -6.20677,1.66188 -9.31376,2.29849 -3.0584,0.62665 -6.15896,1.09366 -9.2328,1.2385 -3.02582,0.14257 -6.07693,-0.0242 -9.08238,-0.68526 -2.96471,-0.65212 -5.88588,-1.78558 -8.68749,-3.57423 -1.08459,-0.63843 -2.31524,-1.524641 -3.61395,-2.618533 -1.28033,-1.078417 -2.64887,-2.377603 -4.01377,-3.860845 -1.26837,-1.378341 -2.54551,-2.928712 -3.74487,-4.61709 -1.29299,-1.820178 -2.54796,-3.870978 -3.59779,-6.091535 -0.948,-2.005193 -1.75182,-4.197856 -2.2453,-6.514705 -0.47473,-2.228786 -0.67075,-4.613564 -0.4016,-7.07047 0.26081,-2.380655 0.95687,-4.809815 2.23508,-7.192196 1.23781,-2.307088 2.99458,-4.520095 5.3507,-6.580668 0.31394,-0.292779 0.67195,-0.589809 1.05413,-0.88584 0.37691,-0.291959 0.79807,-0.598888 1.25144,-0.91411 0.87548,-0.608709 1.89727,-1.266345 2.95812,-1.902415 1.01673,-0.609613 2.09379,-1.213893 3.09838,-1.721566 0.49061,-0.247934 0.98063,-0.481268 1.44812,-0.683011 0.44975,-0.194089 0.93515,-0.383587 1.41283,-0.525757 0.0605,-0.01538 0.22545,-0.06439 0.43815,-0.128396 0.21003,-0.06321 0.47432,-0.142972 0.77901,-0.231896 0.59895,-0.174804 1.36827,-0.389242 2.24622,-0.598534 1.68521,-0.401732 3.91804,-0.820812 6.21203,-0.86007 a 3.6260221,3.4951794 6.2756862 0 1 3.61644,4.344141 c -0.27811,1.10898 -0.59312,2.199972 -0.85376,3.136129 -0.26945,0.967807 -0.48398,1.780516 -0.63038,2.517487 -0.14563,0.733049 -0.19723,1.265288 -0.19255,1.673271 0.004,0.368041 0.0539,0.620698 0.11965,0.784695 0.0923,0.179155 0.17141,0.308942 0.2171,0.383101 0.0445,0.07224 0.0868,0.140248 0.12171,0.184874 0.0412,0.05269 0.0979,0.109678 0.20226,0.179311 0.10783,0.07197 0.25138,0.147784 0.46233,0.244622 0.36324,0.166748 1.10277,0.45978 1.79032,0.86214 0.76554,0.448003 1.51136,1.040075 2.22534,1.896443 1.05465,1.229095 1.7199,2.567282 2.13841,3.910897 0.41987,1.347966 0.5948,2.712921 0.66937,3.990976 0.0753,1.290366 0.0527,2.612914 0.035,3.79788 -0.0188,1.258851 -0.0331,2.397377 0.0342,3.50655 -0.013,0.0067 -0.0295,-0.01549 -0.0572,-0.04766 -0.0295,-0.03434 -0.0625,-0.06888 -0.10186,-0.09578 -0.0377,-0.02575 -0.0703,-0.03608 -0.0858,-0.02998 -0.0155,0.0061 -0.0113,0.02746 0.0166,0.05724 0.0603,0.0644 0.20365,0.144919 0.42179,0.226062 0.22207,0.0826 0.489,0.155121 0.79545,0.230169 0.3084,0.07553 0.64366,0.150132 0.98762,0.241204 0.34486,0.09131 0.72105,0.205402 1.07907,0.364669 0.36629,0.162948 0.76497,0.395451 1.09796,0.746251 0.17249,0.18173 0.3228,0.390549 0.4395,0.627804 0.11853,0.240967 0.19395,0.4941 0.23052,0.753389 0.12224,0.926959 0.0373,1.788581 -0.2106,2.569319 -0.26777,0.843255 -0.71655,1.565473 -1.26098,2.176387 -0.60369,0.67741 -1.33459,1.229453 -2.10558,1.680925 -0.89978,0.526886 -1.88228,0.933306 -2.84854,1.250577 -0.4569,0.153112 -0.91761,0.27913 -1.3629,0.383907 -0.90979,0.214073 -1.84804,0.355988 -2.74236,0.450533 -1.53853,0.162651 -3.05617,0.196402 -4.2931,0.18572 -1.51297,-0.01307 -2.84463,-0.09518 -3.71507,-0.160236 -0.56935,-0.04255 -1.0515,-0.08626 -1.3935,-0.118499 -0.20501,-0.01933 -0.39854,-0.03826 -0.53773,-0.05173 -0.17895,-0.01732 -0.31012,-0.02972 -0.4163,-0.03839 0.10403,-0.01611 0.23789,-0.03311 0.41631,-0.05026 0.14893,-0.01431 0.32516,-0.02839 0.5403,-0.0425 0.37153,-0.02436 0.79967,-0.04523 1.39666,-0.07148 0.79054,-0.03476 2.27616,-0.09278 3.68627,-0.195169 1.21557,-0.08826 2.70436,-0.22981 4.17365,-0.484475 0.85747,-0.14862 1.7375,-0.340604 2.57228,-0.592959 0.40829,-0.123428 0.82026,-0.266968 1.21951,-0.434008 0.87505,-0.371531 1.7093,-0.823826 2.42286,-1.364385 0.61294,-0.464334 1.11537,-0.977877 1.47309,-1.531317 0.32018,-0.495345 0.51436,-1.006772 0.58169,-1.530056 0.0616,-0.478798 0.0196,-0.986099 -0.14726,-1.528243 -0.0155,5.2e-5 -0.0224,0.02707 -0.0218,0.05805 6.2e-4,0.03016 0.008,0.06132 0.007,0.07944 -0.004,0.03595 -0.0521,0.02266 -0.20483,-4.48e-4 -0.16169,-0.02446 -0.34196,-0.04578 -0.63163,-0.06682 -0.2642,-0.0192 -0.57668,-0.03402 -0.92132,-0.05686 -0.32831,-0.02176 -0.71556,-0.0534 -1.10207,-0.116258 -0.37718,-0.06134 -0.81815,-0.162006 -1.25465,-0.350513 -0.21957,-0.09483 -0.44854,-0.216303 -0.67316,-0.374161 -0.224,-0.157413 -0.4431,-0.350658 -0.64173,-0.587089 -0.19796,-0.23563 -0.36631,-0.503189 -0.49765,-0.801311 -0.12997,-0.29502 -0.21725,-0.605251 -0.26666,-0.924348 -0.19687,-1.281333 -0.29339,-2.573985 -0.38445,-3.817874 -0.0899,-1.228533 -0.17294,-2.38107 -0.33476,-3.469329 -0.15851,-1.065984 -0.38329,-1.99903 -0.72453,-2.812355 -0.33025,-0.787128 -0.76465,-1.450676 -1.35256,-2.021929 -0.34946,-0.312356 -0.63046,-0.431655 -0.88399,-0.512548 -0.27417,-0.08748 -0.61155,-0.152014 -1.15579,-0.29081 -0.26474,-0.06752 -0.59521,-0.15953 -0.9514,-0.291172 -0.36188,-0.133741 -0.75975,-0.311535 -1.17294,-0.558877 -0.4149,-0.248361 -0.82227,-0.553064 -1.21571,-0.927843 -0.39108,-0.372526 -0.75079,-0.797467 -1.08329,-1.276279 -0.76371,-1.1096 -1.1544,-2.315953 -1.31984,-3.498225 -0.16221,-1.159248 -0.11092,-2.314671 0.0146,-3.37703 0.12622,-1.068007 0.34227,-2.153366 0.56019,-3.168919 0.2232,-1.040194 0.45913,-2.060872 0.65693,-3.055061 l 3.61644,4.344141 c -1.57226,0.119186 -3.22724,0.494308 -4.64538,0.898404 -0.71503,0.203745 -1.35048,0.409097 -1.8685,0.583619 -0.2642,0.08901 -0.4951,0.169061 -0.7001,0.240086 -0.1924,0.06666 -0.39701,0.137718 -0.5603,0.189972 -0.10348,0.03581 -0.27922,0.09942 -0.59719,0.238756 -0.30154,0.132138 -0.65734,0.300496 -1.0588,0.501754 -0.82332,0.412736 -1.7587,0.923552 -2.68419,1.456139 -0.96154,0.553327 -1.87769,1.109975 -2.64614,1.598605 -0.3983,0.253265 -0.74145,0.478369 -1.03258,0.674791 -0.29435,0.198591 -0.52385,0.362433 -0.64387,0.444485 -1.77765,1.515455 -2.998,3.042436 -3.82753,4.518519 -0.85494,1.521307 -1.33616,3.062084 -1.54477,4.59894 -0.21732,1.600997 -0.14434,3.242913 0.15569,4.894485 0.31264,1.72096 0.86957,3.439107 1.58784,5.106061 0.79365,1.841895 1.77902,3.608632 2.83328,5.234456 0.97529,1.504055 2.02436,2.914331 3.07289,4.193677 1.12856,1.376979 2.25133,2.596089 3.27938,3.619016 1.05315,1.047912 1.97688,1.860664 2.71,2.444916 2.16235,1.543182 4.4597,2.603135 6.88236,3.295548 2.4704,0.70605 5.08819,1.03439 7.83445,1.08582 2.7925,0.0523 5.69636,-0.18214 8.67516,-0.58495 3.02487,-0.40905 6.12105,-0.991003 9.22944,-1.615329 6.46099,-1.297704 12.75947,-2.724928 19.02581,-3.354135 3.18226,-0.319533 6.28142,-0.42283 9.28375,-0.199422 3.05587,0.227391 5.97904,0.791127 8.75669,1.786536 4.88254,1.790553 8.86932,4.57532 12.07557,7.81578 3.32806,3.36356 5.88495,7.28675 7.78537,11.31362 1.97573,4.18645 3.27121,8.54409 4.00105,12.67308 0.75985,4.29869 0.90989,8.35737 0.59109,11.8426 l 0.005,-0.10763 c -0.56101,5.16902 -1.78685,9.73851 -3.49464,13.72393 -1.77045,4.13164 -4.07999,7.68762 -6.79187,10.70854 -1.19252,1.3284 -2.4709,2.56246 -3.8286,3.70408 -1.82184,1.53189 -3.82641,2.93176 -6.02203,4.17707 -3.82365,2.16871 -8.20485,3.85607 -13.14882,4.95557 a 0.00147764,0.15783449 77.533871 0 0 -0.17387,0.0367 c -3.45858,1.02165 -7.25378,1.54572 -11.18297,1.81435 -4.12462,0.28198 -8.47187,0.28238 -12.3443,0.28255 -4.73356,2.2e-4 -8.40623,0.007 -12.02995,0.2532 -4.90594,0.33335 -7.94501,1.02233 -10.21723,1.75972 z"
       id="path1"
       sodipodi:nodetypes="csssssscsssasc"
       inkscape:path-effect="#path-effect9"
       inkscape:original-d="m 255.33233,182.19493 c 11.96347,-2.89743 31.4662,2.81346 46.56667,-0.78996 21.25579,-3.91574 34.32681,-18.88983 35.78581,-40.41442 0.51336,-15.45941 -8.05361,-37.72103 -27.58373,-43.725964 -22.68375,-6.974574 -51.46925,15.013354 -71.17291,1.786 -7.31412,-4.910072 -25.4574,-25.470647 -9.14913,-39.578065 1.79304,-1.551063 7.67435,-5.084705 9.94288,-5.773605 0.97914,-0.297344 4.90229,-1.710831 8.72485,-1.865489 -0.96644,4.266546 -2.39042,8.035104 -0.73448,10.605409 1.70951,2.653453 3.61245,1.473315 5.74109,3.804011 3.26477,3.574678 2.30284,8.852229 2.83665,13.663893 0.28692,2.586238 5.10756,1.036459 5.51629,3.106844 0.5605,2.839178 -1.30916,5.294296 -5.37804,6.815605 -4.71143,1.761553 -12.36264,1.193557 -14.23297,1.261078"
       transform="translate(-163.29233,3.140237)" /></g></svg>
